<?xml version="1.0" standalone="no"?>
<!DOCTYPE svg PUBLIC "-//W3C//DTD SVG 20010904//EN"
 "http://www.w3.org/TR/2001/REC-SVG-20010904/DTD/svg10.dtd">
<svg version="1.0" xmlns="http://www.w3.org/2000/svg"
 width="415.000000pt" height="414.000000pt" viewBox="0 0 415.000000 414.000000"
 preserveAspectRatio="xMidYMid meet">

<g transform="translate(0.000000,414.000000) scale(0.100000,-0.100000)"
fill="#000000" stroke="none">
<path d="M1042 3107 c-568 -568 -1032 -1034 -1032 -1037 0 -3 466 -469 1036
-1034 l1036 -1029 1034 1034 1034 1034 -313 313 c-171 172 -639 637 -1038
1032 l-725 719 -1032 -1032z m1338 358 c205 -45 427 -144 582 -260 164 -123
332 -324 425 -508 49 -98 108 -284 128 -402 21 -126 22 -349 1 -465 -81 -454
-363 -838 -763 -1039 -565 -284 -1236 -174 -1676 273 -205 208 -345 485 -393
774 -20 127 -15 395 11 512 130 592 588 1025 1190 1126 106 18 392 11 495 -11z"/>
<path d="M1915 3126 c-76 -33 -93 -112 -38 -168 29 -29 34 -30 129 -32 69 -1
108 -7 129 -18 l30 -16 -34 -19 c-83 -45 -243 -156 -326 -225 -318 -266 -562
-617 -647 -931 -32 -118 -32 -307 0 -389 32 -80 99 -150 180 -190 66 -33 68
-33 212 -33 154 0 187 6 335 63 60 23 86 27 185 28 143 1 225 20 349 80 212
103 355 316 405 605 12 70 24 101 67 173 63 108 109 212 145 331 23 77 27 109
28 220 1 151 -12 200 -72 280 -39 51 -119 107 -182 126 -73 22 -209 22 -314 0
l-99 -20 -41 28 c-64 44 -160 90 -223 106 -70 18 -178 19 -218 1z"/>
</g>
</svg>
